<?xml version="1.0" encoding="UTF-8" standalone="no"?>
<!DOCTYPE svg PUBLIC "-//W3C//DTD SVG 1.1//EN" "http://www.w3.org/Graphics/SVG/1.1/DTD/svg11.dtd">
<svg width="100%" height="100%" viewBox="0 0 486 486" version="1.1" xmlns="http://www.w3.org/2000/svg" xmlns:xlink="http://www.w3.org/1999/xlink" xml:space="preserve" xmlns:serif="http://www.serif.com/" style="fill-rule:evenodd;clip-rule:evenodd;stroke-linejoin:round;stroke-miterlimit:1.41421;">
    <g transform="matrix(0.822666,0,0,0.822666,55.3358,41.3121)">
        <g transform="matrix(0.0627201,0,0,0.945005,301.989,206.195)">
            <rect x="164.638" y="78.26" width="164.742" height="9.242" style="fill:rgb(147,17,126);"/>
        </g>
        <g transform="matrix(-0.000701752,0.102119,-0.999976,-0.00687173,252.198,62.7947)">
            <rect x="164.638" y="78.26" width="164.742" height="9.242" style="fill:rgb(147,17,126);"/>
        </g>
        <g transform="matrix(0.898553,0,0,1,32.8648,4.79394)">
            <path d="M329.307,74.527C329.307,73.251 328.154,72.215 326.734,72.215L149.221,72.215C147.801,72.215 146.648,73.251 146.648,74.527L146.648,79.15C146.648,80.426 147.801,81.462 149.221,81.462L326.734,81.462C328.154,81.462 329.307,80.426 329.307,79.15L329.307,74.527Z" style="fill:rgb(147,17,126);"/>
        </g>
        <g transform="matrix(0.00152472,1.15515,-0.999999,0.00131993,401.006,-91.6221)">
            <path d="M329.307,74.527C329.307,73.251 328.41,72.215 327.306,72.215L148.649,72.215C147.545,72.215 146.648,73.251 146.648,74.527L146.648,79.15C146.648,80.426 147.545,81.462 148.649,81.462L327.306,81.462C328.41,81.462 329.307,80.426 329.307,79.15L329.307,74.527Z" style="fill:rgb(147,17,126);"/>
        </g>
        <g transform="matrix(1,0,0,1,120.374,96.0004)">
            <path d="M187.564,213.367L25.803,213.367C23.594,213.367 21.803,211.576 21.803,209.367L21.803,4C21.803,1.791 23.594,0 25.803,0L187.564,0C189.773,0 191.564,1.791 191.564,4L191.564,209.367C191.564,211.576 189.773,213.367 187.564,213.367ZM29.803,205.367L183.564,205.367L183.564,8L29.803,8L29.803,205.367ZM146.961,197.867C146.042,197.867 145.142,197.55 144.42,196.956C143.496,196.196 142.961,195.063 142.961,193.867L142.961,191.408L130.086,189.837C128.921,189.694 127.877,189.048 127.231,188.067C126.585,187.088 126.402,185.873 126.731,184.747L131.731,167.598C125.989,163.077 122.296,156.067 122.296,148.209C122.296,134.608 133.361,123.543 146.962,123.543C160.562,123.543 171.627,134.608 171.627,148.209C171.627,154.879 168.966,160.938 164.65,165.383L171.175,188.792C171.474,189.866 171.312,191.017 170.727,191.966C170.142,192.914 169.187,193.576 168.094,193.791L147.734,197.792C147.476,197.843 147.218,197.867 146.961,197.867ZM150.961,187.867L150.961,189.005L162.307,186.776L157.741,170.392C155.631,171.421 153.354,172.159 150.962,172.55L150.962,187.867L150.961,187.867ZM135.729,182.466L142.961,183.35L142.961,172.55C141.571,172.322 140.22,171.979 138.918,171.528L135.729,182.466ZM146.961,131.543C137.772,131.543 130.295,139.02 130.295,148.209C130.295,157.398 137.771,164.874 146.961,164.874C156.15,164.874 163.626,157.398 163.626,148.209C163.626,139.02 156.15,131.543 146.961,131.543ZM105.662,188.867L49.933,188.867C47.724,188.867 45.933,187.076 45.933,184.867C45.933,182.658 47.724,180.867 49.933,180.867L105.662,180.867C107.871,180.867 109.662,182.658 109.662,184.867C109.662,187.076 107.871,188.867 105.662,188.867ZM105.662,162.856L49.933,162.856C47.724,162.856 45.933,161.065 45.933,158.856C45.933,156.647 47.724,154.856 49.933,154.856L105.662,154.856C107.871,154.856 109.662,156.647 109.662,158.856C109.662,161.065 107.871,162.856 105.662,162.856ZM105.662,136.845L49.933,136.845C47.724,136.845 45.933,135.054 45.933,132.845C45.933,130.636 47.724,128.845 49.933,128.845L105.662,128.845C107.871,128.845 109.662,130.636 109.662,132.845C109.662,135.054 107.871,136.845 105.662,136.845ZM158.519,110.834L49.933,110.834C47.724,110.834 45.933,109.043 45.933,106.834C45.933,104.625 47.724,102.834 49.933,102.834L158.518,102.834C160.727,102.834 162.518,104.625 162.518,106.834C162.518,109.043 160.728,110.834 158.519,110.834ZM158.519,84.822L49.933,84.822C47.724,84.822 45.933,83.031 45.933,80.822C45.933,78.613 47.724,76.822 49.933,76.822L158.518,76.822C160.727,76.822 162.518,78.613 162.518,80.822C162.518,83.031 160.728,84.822 158.519,84.822ZM158.519,58.812L49.933,58.812C47.724,58.812 45.933,57.021 45.933,54.812C45.933,52.603 47.724,50.812 49.933,50.812L158.518,50.812C160.727,50.812 162.518,52.603 162.518,54.812C162.518,57.021 160.728,58.812 158.519,58.812ZM158.519,32.8L49.933,32.8C47.724,32.8 45.933,31.009 45.933,28.8C45.933,26.591 47.724,24.8 49.933,24.8L158.518,24.8C160.727,24.8 162.518,26.591 162.518,28.8C162.518,31.009 160.728,32.8 158.519,32.8Z" style="fill:rgb(147,17,126);fill-rule:nonzero;"/>
        </g>
    </g>
</svg>
