<?xml version="1.0" encoding="utf-8"?>
<!-- Generator: Adobe Illustrator 22.1.0, SVG Export Plug-In . SVG Version: 6.00 Build 0)  -->
<svg version="1.1" id="Capa_1" xmlns="http://www.w3.org/2000/svg" xmlns:xlink="http://www.w3.org/1999/xlink" x="0px" y="0px"
	 viewBox="0 0 298 298" style="enable-background:new 0 0 298 298;" xml:space="preserve">
<style type="text/css">
	.st0{display:none;}
	.st1{fill:#93117e;}
</style>
<g>
	<polygon class="st0" points="186.7,90.6 180.4,83.9 171.9,91.9 187.2,108.2 209.1,81.9 200.1,74.5 	"/>
	<polygon class="st0" points="186.7,127.1 180.4,120.5 171.9,128.5 187.2,144.8 209.1,118.5 200.1,111 	"/>
	<polygon class="st0" points="186.7,163.7 180.4,157 171.9,165.1 187.2,181.4 209.1,155.1 200.1,147.6 	"/>
	<polygon class="st0" points="186.7,200.3 180.4,193.6 171.9,201.6 187.2,217.9 209.1,191.6 200.1,184.2 	"/>
	<path class="st1" d="M233.4,55.9c0-9.3-7.5-16.8-16.8-16.8H81.3c-9.3,0-16.8,7.5-16.8,16.8v184.3c0,9.3,7.5,16.8,16.8,16.8h135.3
		c9.3,0,16.8-7.5,16.8-16.8V55.9z M221.7,240.2c0,2.8-2.3,5.1-5.1,5.1H81.3c-2.8,0-5.1-2.3-5.1-5.1V55.9c0-2.8,2.3-5.1,5.1-5.1
		h135.3c2.8,0,5.1,2.3,5.1,5.1V240.2z"/>
	<g>
		<g>
			<path class="st1" d="M192.7,101.7h-8v-8c0-0.9-0.7-1.6-1.6-1.6h-9.6c-0.9,0-1.6,0.7-1.6,1.6v8h-8c-0.9,0-1.6,0.7-1.6,1.6v9.6
				c0,0.9,0.7,1.6,1.6,1.6h8v8c0,0.9,0.7,1.6,1.6,1.6h9.6c0.9,0,1.6-0.7,1.6-1.6v-8h8c0.9,0,1.6-0.7,1.6-1.6v-9.6
				C194.3,102.4,193.6,101.7,192.7,101.7z M191.1,111.3h-8c-0.9,0-1.6,0.7-1.6,1.6v8h-6.4v-8c0-0.9-0.7-1.6-1.6-1.6h-8v-6.4h8
				c0.9,0,1.6-0.7,1.6-1.6v-8h6.4v8c0,0.9,0.7,1.6,1.6,1.6h8V111.3z"/>
		</g>
	</g>
	<g>
		<g>
			<path class="st1" d="M203.1,73.5c-2.6,1.7-5.6,2.6-8.7,2.6c-4.8,0-9.2-2.1-12.3-5.7c0,0,0,0,0,0c-0.9-1.1-2.3-1.8-3.7-1.8
				s-2.8,0.6-3.7,1.8c-3.1,3.7-7.5,5.7-12.3,5.7c-3.1,0-6.1-0.9-8.7-2.6c-3.2-2.1-7.3,0.4-7.3,4.1v32.8c0,7.3,2.3,14.4,6.6,20
				c10.5,14,24.3,20,24.9,20.2c0.2,0.1,0.4,0.1,0.6,0.1s0.4,0,0.6-0.1c0.6-0.3,14.4-6.3,24.9-20.2c4.2-5.6,6.6-12.8,6.6-20V77.7
				C210.4,73.9,206.2,71.5,203.1,73.5z M201.3,128.5c-8.7,11.6-20.2,17.6-23,18.9c-2.8-1.3-14.2-7.3-23-18.9
				c-3.8-5.1-5.9-11.5-5.9-18.1V77.7c0-1.2,1.3-2.1,2.4-1.4c3.1,2,6.7,3.1,10.5,3.1c5.7,0,11.1-2.5,14.8-6.9
				c0.3-0.4,0.8-0.6,1.3-0.6c0.5,0,1,0.2,1.3,0.6c3.7,4.4,9.1,6.9,14.8,6.9c3.7,0,7.4-1.1,10.5-3.1c1-0.6,2.4,0.2,2.4,1.4v32.8l0,0
				C207.2,117,205.1,123.4,201.3,128.5z"/>
		</g>
	</g>
	<g>
		<g>
			<path class="st1" d="M203.3,81.5c-0.4-0.3-1-0.4-1.5-0.2c-2.4,0.9-4.9,1.3-7.5,1.3c-5.5,0-10.8-2-15-5.7c-0.6-0.5-1.5-0.5-2.1,0
				c-4.1,3.7-9.5,5.7-15,5.7c-2.6,0-5.1-0.4-7.5-1.3c-0.5-0.2-1-0.1-1.5,0.2c-0.4,0.3-0.7,0.8-0.7,1.3v10.9c0,0.9,0.7,1.6,1.6,1.6
				s1.6-0.7,1.6-1.6v-8.7c2.1,0.5,4.2,0.8,6.4,0.8c5.8,0,11.5-2,16.1-5.6c4.6,3.7,10.2,5.6,16.1,5.6c2.2,0,4.3-0.3,6.4-0.8v25.5
				c0,5.2-1.6,10.3-4.6,14.2c-6.1,8.1-13.5,13.1-17.8,15.5c-4.4-2.5-11.8-7.5-17.9-15.5c-3-4-4.6-9-4.6-14.3v-3.9
				c0-0.9-0.7-1.6-1.6-1.6s-1.6,0.7-1.6,1.6v3.9c0,5.9,1.9,11.6,5.3,16.2c6.8,9,15.2,14.4,19.6,16.9c0.2,0.1,0.5,0.2,0.8,0.2
				c0.3,0,0.5-0.1,0.8-0.2c4.4-2.4,12.8-7.8,19.6-16.9c3.4-4.5,5.3-10.3,5.3-16.2V82.8C204,82.2,203.7,81.8,203.3,81.5z"/>
		</g>
	</g>
	<rect x="88.6" y="165.6" class="st1" width="121" height="8.8"/>
	<rect x="88.6" y="190.4" class="st1" width="121" height="8.8"/>
	<rect x="88.6" y="214.6" class="st1" width="121" height="8.8"/>
	<polyline class="st1" points="88.6,77.8 88.6,69 132,69 132,77.8 	"/>
	<polyline class="st1" points="88.6,101.8 88.6,93 132,93 132,101.8 	"/>
	<polyline class="st1" points="89.6,125.8 89.6,117 133,117 133,125.8 	"/>
	<polyline class="st1" points="89.6,150.8 89.6,142 133,142 133,150.8 	"/>
</g>
</svg>
