<?xml version="1.0" encoding="UTF-8" standalone="no"?>
<!DOCTYPE svg PUBLIC "-//W3C//DTD SVG 1.1//EN" "http://www.w3.org/Graphics/SVG/1.1/DTD/svg11.dtd">
<svg width="100%" height="100%" viewBox="0 0 486 486" version="1.1" xmlns="http://www.w3.org/2000/svg" xmlns:xlink="http://www.w3.org/1999/xlink" xml:space="preserve" xmlns:serif="http://www.serif.com/" style="fill-rule:evenodd;clip-rule:evenodd;stroke-linejoin:round;stroke-miterlimit:1.41421;">
    <g transform="matrix(0.258794,0,0,0.255226,254.476,247.264)">
        <g transform="matrix(1,0,0,1,-306,-306)">
            <g>
                <path d="M535.04,0L76.961,0C35.939,0 2.564,33.375 2.564,74.399L2.564,374.89C2.564,415.913 35.939,449.289 76.963,449.289L327.826,449.289L327.826,593.844C327.826,601.424 332.536,608.205 339.637,610.855C341.707,611.627 343.852,611.999 345.976,611.999C351.143,611.999 356.185,609.792 359.703,605.731L495.223,449.289L535.038,449.289C576.061,449.289 609.436,415.914 609.436,374.89L609.436,74.399C609.438,33.375 576.063,0 535.04,0ZM573.128,374.891C573.128,395.892 556.043,412.98 535.04,412.98C535.04,412.98 488.068,412.992 487.792,412.98C482.426,412.729 477,414.871 473.209,419.248L364.138,545.161L364.138,431.137C364.138,421.111 356.009,412.982 345.983,412.982L76.961,412.982C55.959,412.982 38.872,395.894 38.872,374.893L38.872,74.399C38.874,53.398 55.959,36.31 76.961,36.31L535.038,36.31C556.04,36.31 573.126,53.398 573.126,74.399L573.126,374.89L573.128,374.89L573.128,374.891Z" style="fill:rgb(147,17,126);fill-rule:nonzero;"/>
                <path d="M509.29,119.751L102.713,119.751C92.687,119.751 84.558,127.88 84.558,137.906C84.558,147.932 92.687,156.061 102.713,156.061L509.29,156.061C519.316,156.061 527.445,147.932 527.445,137.906C527.445,127.88 519.318,119.751 509.29,119.751Z" style="fill:rgb(147,17,126);fill-rule:nonzero;"/>
                <path d="M509.29,206.489L102.713,206.489C92.687,206.489 84.558,214.618 84.558,224.644C84.558,234.67 92.687,242.799 102.713,242.799L509.29,242.799C519.316,242.799 527.445,234.67 527.445,224.644C527.445,214.618 519.318,206.489 509.29,206.489Z" style="fill:rgb(147,17,126);fill-rule:nonzero;"/>
                <path d="M295.159,293.225L102.713,293.225C92.687,293.225 84.558,301.354 84.558,311.38C84.558,321.406 92.687,329.535 102.713,329.535L295.161,329.535C305.187,329.535 313.316,321.406 313.316,311.38C313.314,301.355 305.187,293.225 295.159,293.225Z" style="fill:rgb(147,17,126);fill-rule:nonzero;"/>
            </g>
        </g>
    </g>
</svg>
