<?xml version="1.0" encoding="UTF-8" standalone="no"?>
<!DOCTYPE svg PUBLIC "-//W3C//DTD SVG 1.1//EN" "http://www.w3.org/Graphics/SVG/1.1/DTD/svg11.dtd">
<svg width="100%" height="100%" viewBox="0 0 486 486" version="1.1" xmlns="http://www.w3.org/2000/svg" xmlns:xlink="http://www.w3.org/1999/xlink" xml:space="preserve" xmlns:serif="http://www.serif.com/" style="fill-rule:evenodd;clip-rule:evenodd;stroke-linejoin:round;stroke-miterlimit:1.41421;">
    <g id="path4508" transform="matrix(0.687592,0,0,0.687592,79.0722,71.4386)">
        <path d="M375.738,75.539L101.995,75.539L101.995,248.555L135.81,248.555L135.81,281.346C135.81,320.05 155.318,359.453 156.148,361.111L158.815,366.438L318.918,366.438L321.586,361.111C322.416,359.453 341.923,320.05 341.923,281.346L341.923,248.555L375.738,248.555L375.738,75.539ZM356.415,126.595C340.588,122.94 328.11,110.521 324.438,94.77L356.415,94.77L356.415,126.595ZM304.754,229.323L192.491,229.323L192.491,205.365C192.491,189.812 179.778,177.159 164.151,177.159C156.07,177.159 148.774,180.548 143.606,185.966C136.773,181.882 129.206,179.16 121.318,177.925L121.318,146.185C147.825,142.045 168.819,121.151 172.979,94.77L304.754,94.77C308.914,121.151 329.908,142.045 356.415,146.185L356.415,177.909C329.908,182.049 308.914,202.943 304.754,229.323ZM153.294,94.77C149.622,110.521 137.144,122.94 121.318,126.595L121.318,94.77L153.294,94.77ZM121.318,229.323L121.318,197.489C126.511,198.686 131.438,200.85 135.851,203.867C135.825,204.363 135.81,204.862 135.81,205.365L135.81,229.323L121.318,229.323ZM171.004,347.207C166.017,335.768 155.133,307.77 155.133,281.346L155.133,205.365C155.133,200.416 159.178,196.39 164.151,196.39C169.123,196.39 173.168,200.416 173.168,205.365L173.168,293.428L182.83,293.428C214.668,293.428 241.127,316.798 245.796,347.207L171.004,347.207ZM322.6,281.346C322.6,307.772 311.714,335.772 306.729,347.207L265.291,347.207C260.86,309.312 230.567,279.163 192.491,274.753L192.491,248.555L322.6,248.555L322.6,281.346ZM324.438,229.323C328.11,213.572 340.588,201.153 356.415,197.499L356.415,229.323L324.438,229.323Z" style="fill:rgb(147,17,126);fill-rule:nonzero;"/>
    </g>
    <g id="path4510" transform="matrix(0.687592,0,0,0.687592,79.0722,71.4386)">
        <path d="M247.593,98.415C213.996,98.415 186.663,125.002 186.663,157.684C186.663,190.365 213.996,216.952 247.593,216.952C281.19,216.952 308.522,190.365 308.522,157.684C308.522,125.002 281.19,98.415 247.593,98.415ZM247.593,190.611C228.928,190.611 213.743,175.84 213.743,157.684C213.743,139.527 228.928,124.757 247.593,124.757C266.258,124.757 281.443,139.527 281.443,157.684C281.443,175.84 266.258,190.611 247.593,190.611Z" style="fill:rgb(147,17,126);fill-rule:nonzero;"/>
    </g>
    <g id="text4597" transform="matrix(0.76641,0,0,0.616879,229.951,194.084)">
        <text x="0px" y="0px" style="font-family:'LucidaGrande', 'Lucida Grande', sans-serif;font-weight:500;font-size:65.108px;fill:rgb(147,17,126);">€</text>
    </g>
</svg>
