<?xml version="1.0" encoding="UTF-8" standalone="no"?>
<!DOCTYPE svg PUBLIC "-//W3C//DTD SVG 1.1//EN" "http://www.w3.org/Graphics/SVG/1.1/DTD/svg11.dtd">
<svg width="100%" height="100%" viewBox="0 0 486 486" version="1.1" xmlns="http://www.w3.org/2000/svg" xmlns:xlink="http://www.w3.org/1999/xlink" xml:space="preserve" xmlns:serif="http://www.serif.com/" style="fill-rule:evenodd;clip-rule:evenodd;stroke-linejoin:round;stroke-miterlimit:1.41421;">
    <g id="g1053" transform="matrix(1,0,0,1,96.7981,63.8889)">
        <g id="path1045" transform="matrix(0.613419,0,0,0.599109,68.6404,57.083)">
            <path d="M193.686,68.762C189.779,72.664 189.777,78.996 193.681,82.903C219.95,109.19 219.933,151.977 193.644,178.282C189.74,182.19 189.742,188.52 193.648,192.425C195.601,194.376 198.159,195.353 200.717,195.353C203.278,195.353 205.837,194.374 207.79,192.421C241.869,158.321 241.886,102.851 207.827,68.767C203.925,64.86 197.592,64.856 193.686,68.762Z" style="fill:rgb(147,17,126);fill-rule:nonzero;"/>
        </g>
        <g id="path1047" transform="matrix(0.613419,0,0,0.599109,68.6404,57.083)">
            <path d="M156.301,97.448C152.394,101.35 152.392,107.682 156.296,111.589C166.768,122.069 166.767,139.122 156.294,149.603C152.39,153.509 152.392,159.841 156.299,163.746C158.251,165.697 160.81,166.672 163.367,166.672C165.928,166.672 168.488,165.696 170.44,163.74C188.703,145.465 188.704,115.728 170.442,97.453C166.54,93.544 160.207,93.542 156.301,97.448Z" style="fill:rgb(147,17,126);fill-rule:nonzero;"/>
        </g>
        <g id="path1049" transform="matrix(0.613419,0,0,0.599109,68.6404,57.083)">
            <path d="M252.097,24.471C248.193,20.563 241.862,20.561 237.955,24.465C234.048,28.369 234.046,34.701 237.95,38.608C288.621,89.311 288.599,171.833 237.898,222.559C233.994,226.465 233.996,232.797 237.902,236.702C239.855,238.653 242.413,239.63 244.971,239.63C247.531,239.63 250.091,238.651 252.044,236.698C310.536,178.175 310.559,82.97 252.097,24.471Z" style="fill:rgb(147,17,126);fill-rule:nonzero;"/>
        </g>
        <g id="path1051" transform="matrix(0.613419,0,0,0.599109,68.6404,57.083)">
            <path d="M72.751,195.087C98.461,193.316 118.842,171.823 118.842,145.64C118.842,118.302 96.625,96.062 69.318,96.062C42.009,96.062 19.792,118.302 19.792,145.64C19.792,171.822 40.173,193.314 65.884,195.087C46.634,195.827 29.681,202.782 17.865,214.876C5.726,227.3 -0.443,244.501 0.025,264.622C0.151,270.052 4.589,274.39 10.022,274.39L128.604,274.39C134.037,274.39 138.475,270.052 138.601,264.62C139.068,244.497 132.898,227.294 120.758,214.87C108.945,202.78 91.997,195.827 72.751,195.087Z" style="fill:rgb(147,17,126);fill-rule:nonzero;"/>
        </g>
    </g>
</svg>
