<?xml version="1.0" encoding="UTF-8" standalone="no"?>
<!DOCTYPE svg PUBLIC "-//W3C//DTD SVG 1.1//EN" "http://www.w3.org/Graphics/SVG/1.1/DTD/svg11.dtd">
<svg width="100%" height="100%" viewBox="0 0 486 486" version="1.1" xmlns="http://www.w3.org/2000/svg" xmlns:xlink="http://www.w3.org/1999/xlink" xml:space="preserve" xmlns:serif="http://www.serif.com/" style="fill-rule:evenodd;clip-rule:evenodd;stroke-linejoin:round;stroke-miterlimit:1.41421;">
    <g id="g4533" transform="matrix(1,0,0,1,112.344,71.2072)">
        <g id="path4517" transform="matrix(0.807959,0,0,0.807959,40.5443,38.7866)">
            <path d="M60.859,112.533C54.006,112.533 54.006,123.179 60.859,123.179C88.153,123.179 115.442,123.179 142.734,123.179C149.599,123.179 149.599,112.533 142.734,112.533C115.442,112.533 88.153,112.533 60.859,112.533Z" style="fill:rgb(147,17,126);fill-rule:nonzero;"/>
        </g>
        <g id="path4519" transform="matrix(0.807959,0,0,0.807959,40.5443,36.9368)">
            <path d="M142.734,137.704C115.442,137.704 88.153,137.704 60.859,137.704C54.006,137.704 54.006,148.338 60.859,148.338C88.153,148.338 115.442,148.338 142.734,148.338C149.6,148.338 149.6,137.704 142.734,137.704Z" style="fill:rgb(147,17,126);fill-rule:nonzero;"/>
        </g>
        <g id="path4521" transform="matrix(0.807959,0,0,0.807959,40.5443,37.1373)">
            <path d="M142.734,161.018C115.442,161.018 88.153,161.018 60.859,161.018C54.006,161.018 54.006,171.651 60.859,171.651C88.153,171.651 115.442,171.651 142.734,171.651C149.6,171.65 149.6,161.018 142.734,161.018Z" style="fill:rgb(147,17,126);fill-rule:nonzero;"/>
        </g>
        <g id="path4523" transform="matrix(0.807959,0,0,0.807959,40.5443,35.5368)">
            <path d="M142.734,186.184C115.442,186.184 88.153,186.184 60.859,186.184C54.006,186.184 54.006,196.813 60.859,196.813C88.153,196.813 115.442,196.813 142.734,196.813C149.6,196.812 149.6,186.184 142.734,186.184Z" style="fill:rgb(147,17,126);fill-rule:nonzero;"/>
        </g>
        <g id="path4525" transform="matrix(0.807959,0,0,0.807959,41.817,33.9054)">
            <path d="M141.17,209.934C113.868,209.934 86.569,209.934 59.28,209.934C52.432,209.934 52.432,220.567 59.28,220.567C86.569,220.567 113.868,220.567 141.17,220.567C148.015,220.566 148.015,209.934 141.17,209.934Z" style="fill:rgb(147,17,126);fill-rule:nonzero;"/>
        </g>
        <g id="path4527" transform="matrix(0.807959,0,0,0.807959,42.0941,35.1522)">
            <path d="M25.362,58.087L25.362,256.61L178.239,256.61L178.239,85.63L149.833,58.087L25.362,58.087ZM165.026,243.393L38.585,243.393L38.585,71.305L143.028,71.305L143.028,92.275L165.016,92.275L165.016,243.393L165.026,243.393Z" style="fill:rgb(147,17,126);fill-rule:nonzero;"/>
        </g>
        <g id="polygon4529" transform="matrix(0.807959,0,0,0.807959,41.817,38.0907)">
            <path d="M51.204,27.667L51.204,50.645L64.427,50.645L64.427,40.88L168.875,40.88L168.875,61.85L190.868,61.85L190.868,212.971L185.059,212.971L185.059,226.188L204.086,226.188L204.086,55.205L175.68,27.667L51.204,27.667Z" style="fill:rgb(147,17,126);fill-rule:nonzero;"/>
        </g>
    </g>
</svg>
