<?xml version="1.0" encoding="UTF-8" standalone="no"?>
<!DOCTYPE svg PUBLIC "-//W3C//DTD SVG 1.1//EN" "http://www.w3.org/Graphics/SVG/1.1/DTD/svg11.dtd">
<svg width="100%" height="100%" viewBox="0 0 486 486" version="1.1" xmlns="http://www.w3.org/2000/svg" xmlns:xlink="http://www.w3.org/1999/xlink" xml:space="preserve" xmlns:serif="http://www.serif.com/" style="fill-rule:evenodd;clip-rule:evenodd;stroke-linejoin:round;stroke-miterlimit:1.41421;">
    <g id="g4730" transform="matrix(10.2734,0,0,9.20309,72.474,65.9081)">
        <g id="path4720" transform="matrix(0.787495,0,0,0.787495,4.77643,4.06523)">
            <path d="M15.58,18.332L14.803,18.332C14.4,18.332 14.073,18.006 14.073,17.603C14.073,17.454 14.133,17.31 14.24,17.206C14.692,16.767 15.072,16.176 15.347,15.539C15.403,15.58 15.463,15.61 15.531,15.61C15.967,15.61 16.481,14.646 16.481,13.989C16.481,13.332 16.42,12.799 15.983,12.799C15.931,12.799 15.877,12.808 15.821,12.822C15.79,11.04 15.34,8.817 12.619,8.817C9.78,8.817 9.449,11.036 9.417,12.816C9.377,12.808 9.337,12.799 9.3,12.799C8.863,12.799 8.803,13.332 8.803,13.989C8.803,14.646 9.315,15.61 9.752,15.61C9.806,15.61 9.856,15.595 9.903,15.568C10.177,16.195 10.552,16.774 10.997,17.209C11.104,17.313 11.164,17.455 11.164,17.605C11.164,18.008 10.837,18.335 10.434,18.335L9.656,18.335C7.994,18.335 6.647,19.682 6.647,21.344L6.647,22.178C6.647,22.702 7.072,23.128 7.597,23.128L17.639,23.128C18.163,23.128 18.588,22.702 18.588,22.178L18.588,21.344C18.589,19.68 17.242,18.332 15.58,18.332Z" style="fill:rgb(147,17,126);fill-rule:nonzero;"/>
        </g>
        <g id="path4722" transform="matrix(0.787495,0,0,0.787495,4.77643,4.06523)">
            <path d="M24.589,10.077L16.168,10.077C16.411,10.615 16.585,11.277 16.657,12.096C16.837,12.207 16.972,12.386 17.082,12.602L24.589,12.602C24.979,12.602 25.293,12.287 25.293,11.898L25.293,10.781C25.293,10.393 24.979,10.077 24.589,10.077Z" style="fill:rgb(147,17,126);fill-rule:nonzero;"/>
        </g>
        <g id="path4724" transform="matrix(0.787495,0,0,0.787495,4.77643,4.06523)">
            <path d="M24.589,14.678L17.254,14.678C17.055,15.43 16.565,16.217 15.886,16.427C15.866,16.464 15.843,16.496 15.822,16.533L15.822,17.203L24.588,17.203C24.977,17.203 25.292,16.888 25.292,16.498L25.292,15.382C25.293,14.993 24.979,14.678 24.589,14.678Z" style="fill:rgb(147,17,126);fill-rule:nonzero;"/>
        </g>
        <g id="path4728" transform="matrix(0.743465,0,0,0.743465,5.47421,5.25034)">
            <path d="M27.615,3.057L4.325,3.057C1.936,3.057 0,4.993 0,7.382L0,24.558C0,26.948 1.936,28.883 4.325,28.883L27.615,28.883C30.004,28.883 31.939,26.947 31.939,24.558L31.939,7.382C31.939,4.993 30.004,3.057 27.615,3.057ZM29.898,24.558C29.898,25.817 28.874,26.841 27.615,26.841L4.325,26.841C3.066,26.841 2.042,25.817 2.042,24.558L2.042,7.382C2.042,6.123 3.066,5.099 4.325,5.099L27.615,5.099C28.874,5.099 29.898,6.123 29.898,7.382L29.898,24.558Z" style="fill:rgb(147,17,126);fill-rule:nonzero;"/>
        </g>
        <g id="path4726" transform="matrix(0.787495,0,0,0.787495,4.77643,4.06523)">
            <path d="M24.589,19.279L18.863,19.279C19.241,19.877 19.463,20.582 19.463,21.341L19.463,21.804L24.589,21.804C24.979,21.804 25.293,21.489 25.293,21.1L25.293,19.983C25.293,19.594 24.979,19.279 24.589,19.279Z" style="fill:rgb(147,17,126);fill-rule:nonzero;"/>
        </g>
    </g>
</svg>
